<?xml version="1.0" standalone="no"?>
<!DOCTYPE svg PUBLIC "-//W3C//DTD SVG 20010904//EN"
 "http://www.w3.org/TR/2001/REC-SVG-20010904/DTD/svg10.dtd">
<svg version="1.0" xmlns="http://www.w3.org/2000/svg"
 width="500.000000pt" height="207.000000pt" viewBox="0 0 500.000000 207.000000"
 preserveAspectRatio="xMidYMid meet">

<g transform="translate(0.000000,207.000000) scale(0.100000,-0.100000)"
fill="#000000" stroke="none">
<path d="M1080 1732 c-67 -37 -80 -68 -141 -329 -18 -78 -35 -146 -38 -152 -3
-5 -82 -35 -176 -66 -199 -68 -234 -84 -268 -125 -77 -90 -24 -211 125 -286
29 -15 96 -54 150 -87 l96 -60 7 -146 c11 -252 27 -319 86 -363 34 -26 97 -33
144 -18 26 9 83 56 182 151 l143 138 103 -35 c56 -20 140 -52 187 -71 131 -54
228 -55 275 -3 18 20 17 20 -16 20 l-34 1 25 20 c65 51 70 58 70 91 0 18 -10
61 -21 95 l-22 61 -56 4 c-31 2 -57 3 -58 3 -2 -1 8 -30 22 -66 38 -96 41
-130 15 -154 -20 -18 -24 -19 -78 -3 -31 9 -138 46 -236 83 -106 39 -188 64
-200 61 -12 -3 -84 -67 -161 -142 -77 -75 -153 -143 -168 -151 -25 -13 -31
-13 -52 1 -30 19 -32 32 -46 271 -7 118 -16 198 -24 210 -7 11 -73 56 -146 99
-213 126 -225 135 -237 161 -25 54 -2 68 248 150 96 31 183 65 193 74 19 18
53 135 88 301 24 117 39 154 70 171 33 17 60 -9 186 -181 61 -84 121 -163 132
-174 22 -22 -9 -23 412 11 59 5 69 3 88 -16 21 -21 22 -30 4 -78 -4 -10 10
-13 50 -13 60 0 67 7 67 61 0 45 -24 93 -58 118 -47 33 -105 39 -253 26 -74
-7 -160 -15 -192 -16 l-58 -4 -112 154 c-62 85 -129 168 -149 184 -48 39 -117
47 -168 19z"/>
<path d="M3490 1590 c40 -75 27 -141 -38 -197 l-37 -31 59 19 c74 25 104 19
155 -33 l41 -40 -15 36 c-8 19 -15 54 -15 76 0 34 7 48 43 87 27 30 35 44 22
38 -91 -37 -133 -31 -189 28 -24 26 -34 32 -26 17z"/>
<path d="M4080 1536 c-81 -14 -201 -46 -265 -70 -51 -19 -46 -19 45 -2 126 24
211 28 300 16 293 -39 381 -238 235 -530 -124 -246 -424 -527 -781 -730 -123
-70 -107 -70 43 0 274 128 569 345 741 543 309 355 333 655 63 758 -71 27
-268 35 -381 15z"/>
<path d="M1320 880 l0 -261 93 3 92 3 5 65 5 65 145 5 145 5 0 80 0 80 -145 5
c-120 4 -145 8 -145 20 0 13 25 15 158 18 l157 3 0 84 0 85 -255 0 -255 0 0
-260z"/>
<path d="M1943 1125 c-18 -8 -42 -29 -53 -47 -19 -31 -20 -47 -18 -243 l3
-210 90 0 90 0 3 58 c3 49 6 58 20 55 13 -2 18 -16 20 -61 l3 -58 92 3 92 3 3
205 c3 233 -4 260 -68 292 -45 23 -228 25 -277 3z m155 -189 c-4 -40 -32 -42
-36 -3 -2 16 -1 36 2 44 11 27 37 -6 34 -41z"/>
<path d="M2330 1056 l0 -85 43 -3 42 -3 5 -170 5 -170 92 -3 c111 -3 102 -19
106 193 l2 150 43 3 42 3 0 85 0 84 -190 0 -190 0 0 -84z"/>
<path d="M2755 1127 c-3 -7 -4 -123 -3 -257 l3 -245 90 0 90 0 3 258 2 257
-90 0 c-64 0 -92 -4 -95 -13z"/>
<path d="M2982 883 l3 -258 90 0 90 0 3 158 c2 144 4 158 20 155 15 -3 17 -21
20 -161 l3 -158 92 3 92 3 3 158 c2 125 5 157 16 157 22 0 26 -24 26 -176 l0
-144 90 0 c85 0 90 1 95 23 3 12 4 128 3 257 l-3 235 -150 0 -150 0 -3 -58
c-3 -49 -6 -58 -20 -55 -13 2 -18 16 -20 61 l-3 57 -150 0 -149 0 2 -257z"/>
<path d="M3732 1123 c-62 -30 -67 -53 -67 -288 l0 -210 93 -3 92 -3 0 54 c0
36 5 59 15 67 19 15 23 4 27 -65 l3 -50 93 -3 92 -3 0 213 c0 234 -3 247 -59
285 -30 21 -46 23 -145 23 -82 0 -120 -5 -144 -17z m158 -184 c0 -27 -4 -39
-14 -39 -25 0 -36 56 -14 78 18 18 28 4 28 -39z"/>
<path d="M1802 678 c15 -46 18 -47 18 -5 0 26 -4 37 -14 37 -12 0 -13 -6 -4
-32z"/>
<path d="M2046 458 c-4 -35 -10 -75 -13 -90 -7 -37 24 -39 33 -3 5 19 13 25
35 25 25 0 29 -4 29 -26 0 -49 24 -18 35 45 10 55 10 61 -4 59 -9 -2 -17 -13
-19 -26 -3 -17 -10 -22 -33 -22 -30 0 -30 1 -28 47 3 37 0 49 -12 51 -13 2
-18 -10 -23 -60z"/>
<path d="M2197 493 c-3 -16 -9 -57 -13 -92 -6 -52 -4 -63 7 -59 7 2 18 24 24
49 9 38 15 44 39 47 l29 4 -6 -51 c-5 -40 -3 -51 8 -51 15 0 21 15 31 83 l6
47 -46 0 c-42 0 -46 2 -46 25 0 34 -26 32 -33 -2z"/>
<path d="M2327 414 c-3 -32 -4 -61 -1 -66 6 -10 111 -11 117 0 3 4 8 33 12 65
6 47 5 57 -8 57 -10 0 -18 -16 -23 -47 -8 -43 -12 -48 -37 -51 -28 -3 -29 -3
-26 45 3 37 0 49 -12 51 -13 2 -17 -10 -22 -54z"/>
<path d="M2481 448 c-4 -13 -11 -42 -14 -66 -4 -36 -3 -43 11 -40 11 2 19 17
23 41 8 48 15 55 63 59 22 2 41 9 44 16 3 9 -13 12 -57 12 -55 0 -62 -3 -70
-22z"/>
<path d="M2627 463 c-11 -19 -18 -123 -8 -123 14 0 24 19 31 60 5 34 7 35 53
38 33 2 47 7 47 18 0 11 -14 14 -59 14 -33 0 -62 -3 -64 -7z"/>
<path d="M2770 455 c0 -11 11 -15 39 -15 22 0 43 -4 46 -10 4 -6 -13 -10 -43
-10 -47 0 -50 -1 -56 -31 -3 -17 -3 -35 0 -40 7 -12 111 -11 119 1 4 6 9 35
12 65 l6 55 -62 0 c-48 0 -61 -3 -61 -15z m75 -75 c-3 -5 -17 -10 -31 -10 -13
0 -24 5 -24 10 0 6 14 10 31 10 17 0 28 -4 24 -10z"/>
<path d="M2917 463 c-11 -19 -18 -123 -8 -123 15 0 31 34 31 64 0 14 4 26 9
26 5 0 6 -21 3 -46 -7 -61 17 -56 35 7 l12 44 -2 -47 c-1 -32 2 -48 10 -48 17
0 20 8 28 73 l7 57 -60 0 c-34 0 -63 -3 -65 -7z"/>
</g>
</svg>
