<?xml version="1.0" standalone="no"?>
<!DOCTYPE svg PUBLIC "-//W3C//DTD SVG 20010904//EN"
 "http://www.w3.org/TR/2001/REC-SVG-20010904/DTD/svg10.dtd">
<svg version="1.0" xmlns="http://www.w3.org/2000/svg"
 width="500.000000pt" height="207.000000pt" viewBox="0 0 500.000000 207.000000"
 preserveAspectRatio="xMidYMid meet">

<g transform="translate(0.000000,207.000000) scale(0.100000,-0.100000)"
fill="#000000" stroke="none">
<path d="M1081 1733 c-47 -23 -87 -92 -107 -182 -21 -101 -71 -301 -75 -306
-2 -1 -84 -30 -181 -63 -205 -70 -227 -81 -261 -122 -50 -59 -44 -138 15 -206
16 -18 71 -57 121 -85 51 -28 124 -72 164 -96 l71 -45 7 -127 c11 -210 23
-300 42 -333 27 -46 66 -70 120 -75 69 -7 109 20 262 169 l130 128 113 -40
c62 -21 147 -53 188 -70 121 -51 219 -50 265 0 18 19 17 20 -8 20 -33 0 -34
13 -3 33 63 42 69 68 35 171 l-21 64 -57 4 c-31 2 -57 3 -58 3 -2 -1 8 -28 21
-61 36 -89 42 -131 21 -154 -26 -29 -49 -25 -181 25 -64 26 -164 62 -220 81
-96 33 -105 34 -131 20 -16 -8 -87 -71 -158 -141 -72 -69 -143 -133 -158 -141
-26 -14 -31 -14 -52 0 -30 19 -32 32 -46 271 -6 105 -15 197 -20 206 -8 16
-169 119 -310 199 -62 35 -94 76 -83 105 9 23 60 46 252 110 96 32 183 65 193
74 21 17 51 120 89 301 25 118 40 154 71 171 34 18 61 -10 194 -194 83 -116
128 -169 145 -173 14 -4 118 1 231 10 114 10 216 15 228 11 30 -9 43 -38 31
-70 -5 -14 -10 -28 -10 -31 0 -2 25 -4 55 -4 50 0 55 2 61 26 16 64 -16 134
-78 165 -53 27 -146 25 -429 -6 l-46 -5 -65 87 c-35 49 -81 113 -103 143 -98
139 -173 177 -264 133z"/>
<path d="M3494 1582 c38 -75 26 -129 -42 -189 l-36 -31 58 19 c74 25 107 18
157 -33 l39 -40 -15 35 c-8 20 -15 55 -15 77 0 34 7 48 41 85 l42 45 -43 -15
c-75 -26 -105 -21 -156 30 -35 36 -42 39 -30 17z"/>
<path d="M4075 1534 c-82 -15 -298 -74 -292 -80 2 -2 38 3 80 11 236 45 412
20 519 -74 140 -122 99 -363 -106 -625 -152 -194 -406 -404 -662 -546 -60 -33
-105 -60 -101 -60 17 0 234 102 310 146 193 110 425 293 558 439 352 388 357
720 11 794 -70 15 -218 13 -317 -5z"/>
<path d="M1322 883 l3 -258 90 0 90 0 5 65 5 65 145 5 145 5 0 80 0 80 -148 3
c-134 2 -148 4 -145 20 3 15 21 17 161 20 l157 3 0 84 0 85 -255 0 -255 0 2
-257z"/>
<path d="M1943 1125 c-18 -8 -42 -29 -53 -47 -19 -31 -20 -47 -18 -243 l3
-210 90 0 90 0 3 58 c3 49 6 58 20 55 13 -2 18 -17 22 -58 l5 -55 90 0 90 0 0
215 c0 197 -2 217 -20 244 -10 16 -34 35 -52 42 -44 19 -227 18 -270 -1z m152
-181 c0 -29 -4 -40 -17 -42 -15 -3 -18 4 -18 36 0 21 3 42 7 46 15 15 28 -3
28 -40z"/>
<path d="M2330 1056 l0 -85 43 -3 42 -3 3 -165 c2 -116 6 -166 15 -172 6 -4
49 -8 94 -8 99 0 92 -15 96 195 l2 150 43 3 42 3 0 85 0 84 -190 0 -190 0 0
-84z"/>
<path d="M2755 1128 c-3 -7 -4 -124 -3 -258 l3 -245 90 0 90 0 0 255 0 255
-88 3 c-65 2 -89 -1 -92 -10z"/>
<path d="M2985 1127 c-3 -7 -4 -123 -3 -257 l3 -245 90 0 90 0 3 158 c2 144 4
158 20 155 15 -3 18 -22 22 -158 l5 -155 90 0 90 0 3 158 c2 125 5 157 16 157
22 0 26 -24 26 -176 l0 -144 89 0 c72 0 90 3 95 16 9 24 7 477 -2 492 -7 9
-44 12 -153 10 l-144 -3 -3 -58 c-3 -49 -6 -58 -20 -55 -13 2 -18 16 -20 61
l-3 57 -145 0 c-108 0 -146 -3 -149 -13z"/>
<path d="M3733 1124 c-20 -10 -40 -33 -53 -59 -19 -39 -20 -58 -18 -241 l3
-199 93 -3 92 -3 0 49 c0 51 24 101 34 72 3 -8 7 -37 8 -65 l3 -50 90 0 90 0
2 210 c3 227 1 241 -50 279 -24 18 -45 21 -145 24 -92 2 -124 -1 -149 -14z
m157 -185 c0 -27 -4 -39 -14 -39 -25 0 -36 56 -14 78 18 18 28 4 28 -39z"/>
<path d="M1801 680 c6 -16 13 -30 15 -30 2 0 4 14 4 30 0 20 -5 30 -14 30 -12
0 -13 -6 -5 -30z"/>
<path d="M2046 458 c-4 -35 -10 -75 -13 -90 -7 -36 13 -37 29 -3 8 18 19 25
40 25 23 0 28 -4 28 -25 0 -24 13 -34 23 -17 3 4 8 33 12 65 8 61 -7 80 -25
32 -7 -18 -17 -25 -35 -25 -23 0 -25 3 -25 50 0 36 -4 50 -14 50 -9 0 -16 -20
-20 -62z"/>
<path d="M2197 493 c-3 -16 -9 -57 -13 -92 -6 -52 -4 -63 7 -59 7 2 18 24 24
49 9 38 15 44 39 47 l29 4 -6 -51 c-3 -28 -2 -51 2 -51 17 0 29 26 36 78 l7
52 -46 0 c-42 0 -46 2 -46 25 0 34 -26 32 -33 -2z"/>
<path d="M2335 458 c-2 -7 -6 -35 -7 -63 l-3 -50 54 -3 c30 -2 57 0 62 5 4 4
10 34 14 66 6 47 5 57 -8 57 -10 0 -18 -16 -23 -47 -8 -42 -12 -48 -37 -51
-26 -3 -27 -2 -27 47 0 47 -14 69 -25 39z"/>
<path d="M2485 459 c-4 -5 -10 -35 -14 -65 -6 -42 -5 -54 6 -54 15 0 19 8 28
62 6 36 7 37 52 40 26 2 48 9 51 16 5 15 -114 17 -123 1z"/>
<path d="M2627 463 c-11 -19 -18 -123 -8 -123 14 0 24 19 31 60 5 34 7 35 53
38 33 2 47 7 47 18 0 11 -14 14 -59 14 -33 0 -62 -3 -64 -7z"/>
<path d="M2770 455 c0 -11 11 -15 40 -15 22 0 40 -4 40 -10 0 -5 -20 -10 -44
-10 -41 0 -44 -2 -50 -31 -3 -17 -3 -35 0 -40 7 -12 111 -11 119 1 4 6 9 35
12 65 l6 55 -62 0 c-48 0 -61 -3 -61 -15z m61 -76 c-16 -6 -28 -6 -35 1 -7 7
1 10 25 9 32 0 33 -1 10 -10z"/>
<path d="M2917 463 c-12 -19 -19 -123 -9 -123 16 0 32 34 32 64 0 14 4 26 9
26 5 0 6 -21 3 -46 -7 -61 17 -56 34 7 l12 44 1 -47 c1 -27 5 -48 10 -48 15 0
18 10 26 73 l7 57 -60 0 c-34 0 -63 -3 -65 -7z"/>
</g>
</svg>
